<?xml version="1.0" encoding="UTF-8"?>
<!DOCTYPE svg PUBLIC "-//W3C//DTD SVG 1.1//EN" "http://www.w3.org/Graphics/SVG/1.1/DTD/svg11.dtd">
<svg xmlns="http://www.w3.org/2000/svg" version="1.1" width="512px" height="512px" style="shape-rendering:geometricPrecision; text-rendering:geometricPrecision; image-rendering:optimizeQuality; fill-rule:evenodd; clip-rule:evenodd" xmlns:xlink="http://www.w3.org/1999/xlink">
<g><path style="opacity:0.009" fill="#000000" d="M 139.5,17.5 C 222.18,17.046 304.847,17.546 387.5,19C 422.896,20.7294 442.396,39.2294 446,74.5C 453.755,190.091 460.255,305.758 465.5,421.5C 466.537,436.873 464.703,451.873 460,466.5C 452.632,482.859 440.132,493.025 422.5,497C 410.964,499.43 399.297,500.763 387.5,501C 299.5,501.667 211.5,501.667 123.5,501C 109.217,500.895 95.2167,498.895 81.5,495C 64.4995,489.332 53.6661,477.832 49,460.5C 47.6145,455.239 46.6145,449.906 46,444.5C 45.3333,429.167 45.3333,413.833 46,398.5C 51.2964,301.498 56.6297,204.498 62,107.5C 62.6076,94.4241 63.9409,81.4241 66,68.5C 69.5173,41.9848 84.3506,26.1515 110.5,21C 120.261,19.3776 129.928,18.211 139.5,17.5 Z"/></g>
<g><path style="opacity:0.029" fill="#232323" d="M 427.5,46.5 C 431.399,53.355 434.232,60.6883 436,68.5C 438.735,85.725 440.402,103.058 441,120.5C 446.611,221.828 452.111,323.161 457.5,424.5C 457.573,438.177 455.573,451.51 451.5,464.5C 450.921,467.331 449.588,469.664 447.5,471.5C 438.137,481.85 426.471,488.017 412.5,490C 406.197,490.942 399.863,491.609 393.5,492C 301.5,492.667 209.5,492.667 117.5,492C 108.011,491.752 98.6773,490.418 89.5,488C 83.8806,486.524 78.8806,484.024 74.5,480.5C 70.562,477.902 66.8953,474.902 63.5,471.5C 56.2644,456.95 52.9311,441.45 53.5,425C 58.8707,323.493 64.3707,221.993 70,120.5C 70.5319,103.05 72.1986,85.7169 75,68.5C 77.0453,58.4154 81.212,49.4154 87.5,41.5C 91.4896,36.6959 96.4896,33.1959 102.5,31C 110.956,28.2572 119.623,26.5906 128.5,26C 212.833,25.3333 297.167,25.3333 381.5,26C 395.208,26.2584 407.875,29.9251 419.5,37C 422.777,39.7663 425.443,42.933 427.5,46.5 Z"/></g>
<g><path style="opacity:0.046" fill="#161616" d="M 74.5,480.5 C 71.5375,477.036 68.3709,473.703 65,470.5C 57.0242,455.368 53.8575,439.201 55.5,422C 60.7239,312.803 66.5572,203.636 73,94.5C 73.6795,84.7432 75.0129,75.0766 77,65.5C 80.6071,50.9691 89.1071,40.4691 102.5,34C 115.497,29.8749 128.831,27.8749 142.5,28C 217.833,27.3333 293.167,27.3333 368.5,28C 384.58,27.4235 399.913,30.4235 414.5,37C 427.744,46.6416 434.911,59.8082 436,76.5C 443.7,191.593 450.2,306.76 455.5,422C 457.142,439.201 453.976,455.368 446,470.5C 434.443,483.358 419.943,489.858 402.5,490C 396.5,490.333 390.5,490.667 384.5,491C 298.5,491.667 212.5,491.667 126.5,491C 108.248,491.683 90.9145,488.183 74.5,480.5 Z"/></g>
<g><path style="opacity:1" fill="#f2551c" d="M 257.5,35.5 C 294.835,35.3333 332.168,35.5 369.5,36C 382.161,36.0466 394.495,38.0466 406.5,42C 414.407,45.7387 420.073,51.572 423.5,59.5C 401.837,66.9961 379.837,73.8295 357.5,80C 356.809,81.0674 356.309,82.2341 356,83.5C 355.506,81.8659 355.34,80.1992 355.5,78.5C 355.5,77.1667 355.5,75.8333 355.5,74.5C 361.626,65.4645 360.626,57.2979 352.5,50C 341.882,45.0568 334.048,47.8902 329,58.5C 327.981,63.8443 328.814,68.8443 331.5,73.5C 331.824,77.5546 331.491,81.5546 330.5,85.5C 329.914,85.7093 329.414,86.0426 329,86.5C 329.278,82.8606 329.278,79.1939 329,75.5C 282.348,89.552 235.848,103.885 189.5,118.5C 182.516,106.876 178.516,94.2093 177.5,80.5C 177.34,78.8008 177.506,77.1341 178,75.5C 182.721,70.8345 184.555,65.1678 183.5,58.5C 208.25,50.8174 232.917,43.1507 257.5,35.5 Z"/></g>
<g><path style="opacity:1" fill="#f25018" d="M 257.5,35.5 C 232.917,43.1507 208.25,50.8174 183.5,58.5C 179.223,49.6949 172.223,46.1949 162.5,48C 154.032,51.7685 150.365,58.2685 151.5,67.5C 128.183,74.4967 104.85,81.4967 81.5,88.5C 81.9157,83.5068 82.2491,78.5068 82.5,73.5C 82.5,72.8333 82.5,72.1667 82.5,71.5C 86.6534,53.1806 97.9868,42.014 116.5,38C 121.47,37.1144 126.47,36.4477 131.5,36C 173.499,35.5 215.499,35.3333 257.5,35.5 Z"/></g>
<g><path style="opacity:1" fill="#f5835b" d="M 426.5,56.5 C 426.993,58.8056 427.326,61.139 427.5,63.5C 427.657,64.8734 427.49,66.2068 427,67.5C 426.125,64.5989 424.958,61.9323 423.5,59.5C 420.073,51.572 414.407,45.7387 406.5,42C 394.495,38.0466 382.161,36.0466 369.5,36C 332.168,35.5 294.835,35.3333 257.5,35.5C 215.499,35.3333 173.499,35.5 131.5,36C 126.47,36.4477 121.47,37.1144 116.5,38C 97.9868,42.014 86.6534,53.1806 82.5,71.5C 83.3842,64.2972 85.0509,57.2972 87.5,50.5C 91.0331,44.4716 96.0331,39.9716 102.5,37C 110.258,34.1817 118.258,32.515 126.5,32C 212.833,31.3333 299.167,31.3333 385.5,32C 400.105,31.7475 412.272,36.9142 422,47.5C 423.546,50.5919 425.046,53.5919 426.5,56.5 Z"/></g>
<g><path style="opacity:1" fill="#b1441d" d="M 355.5,74.5 C 354.5,75.1667 353.5,75.8333 352.5,76.5C 352.666,71.1563 352.499,65.8229 352,60.5C 348.96,54.6318 344.46,53.1318 338.5,56C 336.951,57.214 335.785,58.714 335,60.5C 334.501,65.4889 334.334,70.4889 334.5,75.5C 333.5,74.8333 332.5,74.1667 331.5,73.5C 328.814,68.8443 327.981,63.8443 329,58.5C 334.048,47.8902 341.882,45.0568 352.5,50C 360.626,57.2979 361.626,65.4645 355.5,74.5 Z"/></g>
<g><path style="opacity:1" fill="#b2411a" d="M 183.5,58.5 C 184.555,65.1678 182.721,70.8345 178,75.5C 177.506,77.1341 177.34,78.8008 177.5,80.5C 176.672,74.0126 176.172,67.346 176,60.5C 171.47,53.4117 166.137,52.745 160,58.5C 158.59,64.3792 158.09,70.3792 158.5,76.5C 157.5,75.8333 156.5,75.1667 155.5,74.5C 153.884,72.262 152.551,69.9287 151.5,67.5C 150.365,58.2685 154.032,51.7685 162.5,48C 172.223,46.1949 179.223,49.6949 183.5,58.5 Z"/></g>
<g><path style="opacity:1" fill="#e4cdbc" d="M 177.5,80.5 C 178.516,94.2093 182.516,106.876 189.5,118.5C 197.835,132.98 210.168,142.48 226.5,147C 246.579,151.852 266.579,151.519 286.5,146C 306.081,140.086 319.581,127.586 327,108.5C 330.922,97.8124 333.422,86.8124 334.5,75.5C 334.334,70.4889 334.501,65.4889 335,60.5C 335.785,58.714 336.951,57.214 338.5,56C 344.46,53.1318 348.96,54.6318 352,60.5C 352.499,65.8229 352.666,71.1563 352.5,76.5C 351.68,91.1137 348.346,105.114 342.5,118.5C 326.501,149.528 300.835,166.028 265.5,168C 228.619,172.038 198.619,159.871 175.5,131.5C 171.541,123.916 167.874,116.25 164.5,108.5C 161.639,98.002 159.639,87.3353 158.5,76.5C 158.09,70.3792 158.59,64.3792 160,58.5C 166.137,52.745 171.47,53.4117 176,60.5C 176.172,67.346 176.672,74.0126 177.5,80.5 Z"/></g>
<g><path style="opacity:0.024" fill="#2d2d2d" d="M 427.5,46.5 C 430.051,48.5777 431.884,51.2444 433,54.5C 439.025,74.3585 442.025,94.6918 442,115.5C 447.795,218.486 453.295,321.486 458.5,424.5C 458.918,436.741 457.418,448.741 454,460.5C 453.392,462.066 452.558,463.4 451.5,464.5C 455.573,451.51 457.573,438.177 457.5,424.5C 452.111,323.161 446.611,221.828 441,120.5C 440.402,103.058 438.735,85.725 436,68.5C 434.232,60.6883 431.399,53.355 427.5,46.5 Z"/></g>
<g><path style="opacity:0.024" fill="#2d2d2d" d="M 87.5,41.5 C 81.212,49.4154 77.0453,58.4154 75,68.5C 72.1986,85.7169 70.5319,103.05 70,120.5C 64.3707,221.993 58.8707,323.493 53.5,425C 52.9311,441.45 56.2644,456.95 63.5,471.5C 59.2528,466.304 56.4194,460.304 55,453.5C 53.0986,443.761 52.2653,433.928 52.5,424C 57.72,320.82 63.22,217.653 69,114.5C 69.5653,98.3819 71.232,82.3819 74,66.5C 75.9236,56.6448 80.4236,48.3115 87.5,41.5 Z"/></g>
<g><path style="opacity:0.178" fill="#1a1a1a" d="M 87.5,50.5 C 85.0509,57.2972 83.3842,64.2972 82.5,71.5C 82.5,72.1667 82.5,72.8333 82.5,73.5C 81.111,78.2688 80.4443,83.2688 80.5,88.5C 78.9405,107.798 77.9405,127.131 77.5,146.5C 76.5104,152.31 76.1771,158.31 76.5,164.5C 74.5824,191.333 72.9158,218.333 71.5,245.5C 69.9081,273.154 68.5748,300.82 67.5,328.5C 65.5475,352.646 64.2142,376.979 63.5,401.5C 61.9055,417.75 62.4055,434.084 65,450.5C 69.5751,465.74 79.7418,474.574 95.5,477C 100.47,477.886 105.47,478.552 110.5,479C 207.167,479.667 303.833,479.667 400.5,479C 412.593,478.81 423.927,475.81 434.5,470C 444.606,460.033 449.439,447.866 449,433.5C 449.823,425.323 449.656,417.323 448.5,409.5C 448.824,402.646 448.491,395.979 447.5,389.5C 447.489,377.31 446.823,365.31 445.5,353.5C 445.161,334.742 444.161,316.075 442.5,297.5C 442.489,285.31 441.823,273.31 440.5,261.5C 440.119,242.979 439.119,224.646 437.5,206.5C 437.386,193.456 436.72,180.456 435.5,167.5C 435.821,162.305 435.487,157.305 434.5,152.5C 433.876,129.808 432.709,107.142 431,84.5C 430.46,77.2586 429.293,70.2586 427.5,63.5C 427.326,61.139 426.993,58.8056 426.5,56.5C 429.235,61.4013 431.069,66.7346 432,72.5C 433.439,81.4497 434.439,90.4497 435,99.5C 440.814,202.158 446.481,304.825 452,407.5C 452.805,420.864 452.472,434.198 451,447.5C 447.958,468.876 435.791,481.376 414.5,485C 409.201,485.93 403.867,486.597 398.5,487C 303.167,487.667 207.833,487.667 112.5,487C 98.2328,486.854 85.2328,482.854 73.5,475C 63.9925,465.159 59.1592,453.326 59,439.5C 58.3333,428.5 58.3333,417.5 59,406.5C 64.5617,303.827 70.2284,201.161 76,98.5C 76.3504,83.7051 79.0171,69.3718 84,55.5C 85.0298,53.6536 86.1964,51.9869 87.5,50.5 Z"/></g>
<g><path style="opacity:0.998" fill="#c26332" d="M 63.5,401.5 C 63.5,403.833 63.5,406.167 63.5,408.5C 63.8929,421.241 65.0596,433.908 67,446.5C 68.8043,455.144 73.3043,461.81 80.5,466.5C 85.3188,469.723 90.6521,471.889 96.5,473C 101.47,473.886 106.47,474.552 111.5,475C 157.165,475.5 202.832,475.667 248.5,475.5C 296.834,475.667 345.168,475.5 393.5,475C 402.614,474.426 411.614,473.092 420.5,471C 434.33,466.495 442.497,456.995 445,442.5C 446.254,431.473 447.421,420.473 448.5,409.5C 449.656,417.323 449.823,425.323 449,433.5C 449.439,447.866 444.606,460.033 434.5,470C 423.927,475.81 412.593,478.81 400.5,479C 303.833,479.667 207.167,479.667 110.5,479C 105.47,478.552 100.47,477.886 95.5,477C 79.7418,474.574 69.5751,465.74 65,450.5C 62.4055,434.084 61.9055,417.75 63.5,401.5 Z"/></g>
<g><path style="opacity:1" fill="#d76f38" d="M 321.5,426.5 C 324.438,433.133 327.104,439.966 329.5,447C 346.497,447.5 363.497,447.667 380.5,447.5C 380.714,449.144 380.38,450.644 379.5,452C 371,452.167 362.5,452.333 354,452.5C 344.936,452.471 336.103,451.805 327.5,450.5C 323.664,442.987 321.664,434.987 321.5,426.5 Z"/></g>
<g><path style="opacity:1" fill="#f27d3f" d="M 447.5,389.5 C 448.491,395.979 448.824,402.646 448.5,409.5C 447.421,420.473 446.254,431.473 445,442.5C 442.497,456.995 434.33,466.495 420.5,471C 411.614,473.092 402.614,474.426 393.5,475C 345.168,475.5 296.834,475.667 248.5,475.5C 274.906,467.365 301.239,459.031 327.5,450.5C 336.103,451.805 344.936,452.471 354,452.5C 362.5,452.333 371,452.167 379.5,452C 380.38,450.644 380.714,449.144 380.5,447.5C 379.703,443.777 378.703,440.11 377.5,436.5C 400.163,429.78 422.83,422.947 445.5,416C 447.179,407.295 447.846,398.462 447.5,389.5 Z"/></g>
<g><path style="opacity:1" fill="#da6b34" d="M 202.5,391.5 C 238.167,391.5 273.833,391.5 309.5,391.5C 313.696,402.753 317.696,414.086 321.5,425.5C 320.542,425.047 319.708,424.381 319,423.5C 315.984,414.281 312.484,405.281 308.5,396.5C 273.838,395.333 239.171,395.167 204.5,396C 197.548,414.353 190.881,432.853 184.5,451.5C 166.338,452.827 148.338,452.827 130.5,451.5C 130.216,449.585 130.549,447.919 131.5,446.5C 148.328,447.662 165.328,447.828 182.5,447C 189.313,428.543 195.979,410.043 202.5,391.5 Z"/></g>
<g><path style="opacity:1" fill="#f2783b" d="M 321.5,425.5 C 321.5,425.833 321.5,426.167 321.5,426.5C 321.664,434.987 323.664,442.987 327.5,450.5C 301.239,459.031 274.906,467.365 248.5,475.5C 202.832,475.667 157.165,475.5 111.5,475C 106.47,474.552 101.47,473.886 96.5,473C 90.6521,471.889 85.3188,469.723 80.5,466.5C 96.9526,461.13 113.619,456.13 130.5,451.5C 148.338,452.827 166.338,452.827 184.5,451.5C 190.881,432.853 197.548,414.353 204.5,396C 239.171,395.167 273.838,395.333 308.5,396.5C 312.484,405.281 315.984,414.281 319,423.5C 319.708,424.381 320.542,425.047 321.5,425.5 Z"/></g>
<g><path style="opacity:1" fill="#fce6d9" d="M 309.5,391.5 C 326.5,391.5 343.5,391.5 360.5,391.5C 365.596,406.797 371.262,421.797 377.5,436.5C 378.703,440.11 379.703,443.777 380.5,447.5C 363.497,447.667 346.497,447.5 329.5,447C 327.104,439.966 324.438,433.133 321.5,426.5C 321.5,426.167 321.5,425.833 321.5,425.5C 317.696,414.086 313.696,402.753 309.5,391.5 Z"/></g>
<g><path style="opacity:1" fill="#fdf6ef" d="M 151.5,391.5 C 168.5,391.5 185.5,391.5 202.5,391.5C 195.979,410.043 189.313,428.543 182.5,447C 165.328,447.828 148.328,447.662 131.5,446.5C 138.17,428.155 144.837,409.822 151.5,391.5 Z"/></g>
<g><path style="opacity:1" fill="#f27336" d="M 119.5,371.5 C 124.588,386.726 135.254,393.393 151.5,391.5C 144.837,409.822 138.17,428.155 131.5,446.5C 130.549,447.919 130.216,449.585 130.5,451.5C 113.619,456.13 96.9526,461.13 80.5,466.5C 73.3043,461.81 68.8043,455.144 67,446.5C 65.0596,433.908 63.8929,421.241 63.5,408.5C 64.1499,408.804 64.8165,409.137 65.5,409.5C 86.363,402.868 107.363,396.701 128.5,391C 122.113,386.06 119.113,379.56 119.5,371.5 Z"/></g>
<g><path style="opacity:1" fill="#f2793c" d="M 445.5,353.5 C 446.823,365.31 447.489,377.31 447.5,389.5C 447.846,398.462 447.179,407.295 445.5,416C 422.83,422.947 400.163,429.78 377.5,436.5C 371.262,421.797 365.596,406.797 360.5,391.5C 376.169,393.513 386.502,387.18 391.5,372.5C 390.992,375.176 390.825,377.843 391,380.5C 392.079,377.937 392.579,375.271 392.5,372.5C 410.225,367.703 427.892,362.703 445.5,357.5C 445.5,356.167 445.5,354.833 445.5,353.5 Z"/></g>
<g><path style="opacity:1" fill="#fefefe" d="M 170.5,343.5 C 186.833,343.5 203.167,343.5 219.5,343.5C 242.833,343.5 266.167,343.5 289.5,343.5C 290.5,343.5 291.5,343.5 292.5,343.5C 308.833,343.5 325.167,343.5 341.5,343.5C 352.172,343.333 362.839,343.5 373.5,344C 386.966,348.761 392.966,358.261 391.5,372.5C 386.502,387.18 376.169,393.513 360.5,391.5C 343.5,391.5 326.5,391.5 309.5,391.5C 273.833,391.5 238.167,391.5 202.5,391.5C 185.5,391.5 168.5,391.5 151.5,391.5C 135.254,393.393 124.588,386.726 119.5,371.5C 118.443,357.722 124.443,348.555 137.5,344C 148.495,343.5 159.495,343.333 170.5,343.5 Z"/></g>
<g><path style="opacity:1" fill="#fddcd1" d="M 140.5,359.5 C 217.167,359.333 293.834,359.5 370.5,360C 375.689,362.913 376.856,367.08 374,372.5C 373.097,373.701 371.931,374.535 370.5,375C 293.833,375.667 217.167,375.667 140.5,375C 133.889,369.798 133.889,364.631 140.5,359.5 Z"/></g>
<g><path style="opacity:1" fill="#f16d31" d="M 289.5,343.5 C 266.167,343.5 242.833,343.5 219.5,343.5C 225.443,327.336 231.776,311.336 238.5,295.5C 239.397,296.598 240.23,296.598 241,295.5C 242.139,291.888 243.806,288.554 246,285.5C 246.182,282.774 246.682,280.107 247.5,277.5C 250.262,272.727 252.595,267.727 254.5,262.5C 255.822,262.33 256.989,262.663 258,263.5C 260.071,271.38 262.738,279.047 266,286.5C 269.82,289.092 271.487,292.758 271,297.5C 276.858,312.892 283.024,328.225 289.5,343.5 Z"/></g>
<g><path style="opacity:1" fill="#f27336" d="M 442.5,297.5 C 444.161,316.075 445.161,334.742 445.5,353.5C 445.5,354.833 445.5,356.167 445.5,357.5C 427.892,362.703 410.225,367.703 392.5,372.5C 392.579,375.271 392.079,377.937 391,380.5C 390.825,377.843 390.992,375.176 391.5,372.5C 392.966,358.261 386.966,348.761 373.5,344C 362.839,343.5 352.172,343.333 341.5,343.5C 339.5,338.5 337.5,333.5 335.5,328.5C 371.114,317.962 406.781,307.628 442.5,297.5 Z"/></g>
<g><path style="opacity:1" fill="#f26c31" d="M 191.5,290.5 C 184.695,308.251 177.695,325.918 170.5,343.5C 159.495,343.333 148.495,343.5 137.5,344C 124.443,348.555 118.443,357.722 119.5,371.5C 119.113,379.56 122.113,386.06 128.5,391C 107.363,396.701 86.363,402.868 65.5,409.5C 64.8165,409.137 64.1499,408.804 63.5,408.5C 63.5,406.167 63.5,403.833 63.5,401.5C 64.2142,376.979 65.5475,352.646 67.5,328.5C 67.3354,331.518 67.502,334.518 68,337.5C 68.4986,333.848 68.6653,330.182 68.5,326.5C 109.5,314.5 150.5,302.5 191.5,290.5 Z"/></g>
<g><path style="opacity:1" fill="#df6631" d="M 256.5,254.5 C 269.282,283.846 281.282,313.513 292.5,343.5C 291.5,343.5 290.5,343.5 289.5,343.5C 283.024,328.225 276.858,312.892 271,297.5C 271.487,292.758 269.82,289.092 266,286.5C 262.738,279.047 260.071,271.38 258,263.5C 256.989,262.663 255.822,262.33 254.5,262.5C 252.595,267.727 250.262,272.727 247.5,277.5C 246.682,280.107 246.182,282.774 246,285.5C 243.806,288.554 242.139,291.888 241,295.5C 240.23,296.598 239.397,296.598 238.5,295.5C 243.714,281.413 249.714,267.747 256.5,254.5 Z"/></g>
<g><path style="opacity:1" fill="#f26e32" d="M 440.5,261.5 C 441.823,273.31 442.489,285.31 442.5,297.5C 406.781,307.628 371.114,317.962 335.5,328.5C 331.833,319.167 328.167,309.833 324.5,300.5C 362.77,288.911 401.103,277.411 439.5,266C 440.38,264.644 440.714,263.144 440.5,261.5 Z"/></g>
<g><path style="opacity:1" fill="#f36930" d="M 231.5,200.5 C 217.579,230.333 204.246,260.333 191.5,290.5C 150.5,302.5 109.5,314.5 68.5,326.5C 68.6653,330.182 68.4986,333.848 68,337.5C 67.502,334.518 67.3354,331.518 67.5,328.5C 68.5748,300.82 69.9081,273.154 71.5,245.5C 73.8909,243.864 76.5576,242.697 79.5,242C 129.725,228.036 179.891,213.869 230,199.5C 230.765,199.57 231.265,199.903 231.5,200.5 Z"/></g>
<g><path style="opacity:1" fill="#f26b31" d="M 437.5,206.5 C 439.119,224.646 440.119,242.979 440.5,261.5C 440.714,263.144 440.38,264.644 439.5,266C 401.103,277.411 362.77,288.911 324.5,300.5C 317.028,282.751 309.361,265.084 301.5,247.5C 346.912,235.48 392.246,223.147 437.5,210.5C 437.5,209.167 437.5,207.833 437.5,206.5 Z"/></g>
<g><path style="opacity:1" fill="#f36930" d="M 322.5,167.5 C 360.167,167.5 397.833,167.5 435.5,167.5C 436.72,180.456 437.386,193.456 437.5,206.5C 437.5,207.833 437.5,209.167 437.5,210.5C 392.246,223.147 346.912,235.48 301.5,247.5C 294.95,231.403 287.616,215.736 279.5,200.5C 264.009,199.504 248.342,199.17 232.5,199.5C 244.298,194.8 256.632,192.133 269.5,191.5C 285.98,189.9 301.146,184.234 315,174.5C 316.811,173.922 318.645,173.422 320.5,173C 319.833,172.667 319.167,172.333 318.5,172C 320.041,170.629 321.375,169.129 322.5,167.5 Z"/></g>
<g><path style="opacity:1" fill="#fde8db" d="M 279.5,200.5 C 287.616,215.736 294.95,231.403 301.5,247.5C 309.361,265.084 317.028,282.751 324.5,300.5C 328.167,309.833 331.833,319.167 335.5,328.5C 337.5,333.5 339.5,338.5 341.5,343.5C 325.167,343.5 308.833,343.5 292.5,343.5C 281.282,313.513 269.282,283.846 256.5,254.5C 264.167,236.5 271.833,218.5 279.5,200.5 Z"/></g>
<g><path style="opacity:1" fill="#fef8f0" d="M 232.5,199.5 C 248.342,199.17 264.009,199.504 279.5,200.5C 271.833,218.5 264.167,236.5 256.5,254.5C 249.714,267.747 243.714,281.413 238.5,295.5C 231.776,311.336 225.443,327.336 219.5,343.5C 203.167,343.5 186.833,343.5 170.5,343.5C 177.695,325.918 184.695,308.251 191.5,290.5C 204.246,260.333 217.579,230.333 231.5,200.5C 232.167,200.5 232.5,200.167 232.5,199.5 Z"/></g>
<g><path style="opacity:1" fill="#f36831" d="M 76.5,164.5 C 76.5,165.5 76.5,166.5 76.5,167.5C 116.167,167.5 155.833,167.5 195.5,167.5C 196.167,167.5 196.833,167.5 197.5,167.5C 199.237,169.55 201.237,171.383 203.5,173C 229.181,186.179 255.847,189.512 283.5,183C 294.566,179.635 304.566,174.469 313.5,167.5C 316.5,167.5 319.5,167.5 322.5,167.5C 321.375,169.129 320.041,170.629 318.5,172C 319.167,172.333 319.833,172.667 320.5,173C 318.645,173.422 316.811,173.922 315,174.5C 301.146,184.234 285.98,189.9 269.5,191.5C 256.632,192.133 244.298,194.8 232.5,199.5C 232.5,200.167 232.167,200.5 231.5,200.5C 231.265,199.903 230.765,199.57 230,199.5C 179.891,213.869 129.725,228.036 79.5,242C 76.5576,242.697 73.8909,243.864 71.5,245.5C 72.9158,218.333 74.5824,191.333 76.5,164.5 Z"/></g>
<g><path style="opacity:1" fill="#d55a2b" d="M 342.5,118.5 C 339.006,133.823 331.839,147.156 321,158.5C 320.667,158.167 320.333,157.833 320,157.5C 316.281,160.097 313.114,163.263 310.5,167C 311.448,167.483 312.448,167.649 313.5,167.5C 304.566,174.469 294.566,179.635 283.5,183C 255.847,189.512 229.181,186.179 203.5,173C 201.237,171.383 199.237,169.55 197.5,167.5C 198.873,167.657 200.207,167.49 201.5,167C 188.775,158.015 180.109,146.182 175.5,131.5C 198.619,159.871 228.619,172.038 265.5,168C 300.835,166.028 326.501,149.528 342.5,118.5 Z"/></g>
<g><path style="opacity:1" fill="#da521f" d="M 164.5,108.5 C 167.874,116.25 171.541,123.916 175.5,131.5C 180.109,146.182 188.775,158.015 201.5,167C 200.207,167.49 198.873,167.657 197.5,167.5C 196.833,167.5 196.167,167.5 195.5,167.5C 178.595,151.36 168.262,131.693 164.5,108.5 Z"/></g>
<g><path style="opacity:1" fill="#ea5921" d="M 355.5,74.5 C 355.5,75.8333 355.5,77.1667 355.5,78.5C 354.575,92.6976 351.908,106.698 347.5,120.5C 347.709,121.086 348.043,121.586 348.5,122C 346.028,128.415 343.362,134.748 340.5,141C 341.634,142.016 341.301,142.683 339.5,143C 340.458,144.147 340.125,145.147 338.5,146C 338.957,146.414 339.291,146.914 339.5,147.5C 338.05,148.85 337.383,150.516 337.5,152.5C 342.179,152.666 346.845,152.499 351.5,152C 349.167,151.667 346.833,151.333 344.5,151C 368.185,151.006 391.852,151.839 415.5,153.5C 424.798,153.326 424.798,152.826 415.5,152C 421.87,151.294 428.203,151.461 434.5,152.5C 435.487,157.305 435.821,162.305 435.5,167.5C 397.833,167.5 360.167,167.5 322.5,167.5C 319.5,167.5 316.5,167.5 313.5,167.5C 312.448,167.649 311.448,167.483 310.5,167C 313.114,163.263 316.281,160.097 320,157.5C 320.333,157.833 320.667,158.167 321,158.5C 331.839,147.156 339.006,133.823 342.5,118.5C 348.346,105.114 351.68,91.1137 352.5,76.5C 353.5,75.8333 354.5,75.1667 355.5,74.5 Z"/></g>
<g><path style="opacity:1" fill="#eb541d" d="M 155.5,74.5 C 156.5,75.1667 157.5,75.8333 158.5,76.5C 159.639,87.3353 161.639,98.002 164.5,108.5C 168.262,131.693 178.595,151.36 195.5,167.5C 155.833,167.5 116.167,167.5 76.5,167.5C 76.5,166.5 76.5,165.5 76.5,164.5C 76.1771,158.31 76.5104,152.31 77.5,146.5C 77.335,149.85 77.5017,153.183 78,156.5C 78.49,155.207 78.6567,153.873 78.5,152.5C 83.8333,152.167 83.8333,151.833 78.5,151.5C 78.5,150.167 78.5,148.833 78.5,147.5C 96.5271,147.409 114.527,148.076 132.5,149.5C 134.833,149.333 137.167,149.167 139.5,149C 128.864,148.172 128.864,147.672 139.5,147.5C 150.174,148.612 160.841,148.612 171.5,147.5C 162.849,125.097 157.516,100.764 155.5,74.5 Z"/></g>
<g><path style="opacity:0.669" fill="#da6a44" d="M 82.5,73.5 C 82.2491,78.5068 81.9157,83.5068 81.5,88.5C 81.1667,88.5 80.8333,88.5 80.5,88.5C 80.4443,83.2688 81.111,78.2688 82.5,73.5 Z"/></g>
<g><path style="opacity:1" fill="#f1541b" d="M 151.5,67.5 C 152.551,69.9287 153.884,72.262 155.5,74.5C 157.516,100.764 162.849,125.097 171.5,147.5C 160.841,148.612 150.174,148.612 139.5,147.5C 128.864,147.672 128.864,148.172 139.5,149C 137.167,149.167 134.833,149.333 132.5,149.5C 114.527,148.076 96.5271,147.409 78.5,147.5C 78.5,148.833 78.5,150.167 78.5,151.5C 83.8333,151.833 83.8333,152.167 78.5,152.5C 78.6567,153.873 78.49,155.207 78,156.5C 77.5017,153.183 77.335,149.85 77.5,146.5C 77.9405,127.131 78.9405,107.798 80.5,88.5C 80.8333,88.5 81.1667,88.5 81.5,88.5C 104.85,81.4967 128.183,74.4967 151.5,67.5 Z"/></g>
<g><path style="opacity:1" fill="#f15b22" d="M 423.5,59.5 C 424.958,61.9323 426.125,64.5989 427,67.5C 427.49,66.2068 427.657,64.8734 427.5,63.5C 429.293,70.2586 430.46,77.2586 431,84.5C 432.709,107.142 433.876,129.808 434.5,152.5C 428.203,151.461 421.87,151.294 415.5,152C 424.798,152.826 424.798,153.326 415.5,153.5C 391.852,151.839 368.185,151.006 344.5,151C 346.833,151.333 349.167,151.667 351.5,152C 346.845,152.499 342.179,152.666 337.5,152.5C 337.383,150.516 338.05,148.85 339.5,147.5C 339.291,146.914 338.957,146.414 338.5,146C 340.125,145.147 340.458,144.147 339.5,143C 341.301,142.683 341.634,142.016 340.5,141C 343.362,134.748 346.028,128.415 348.5,122C 348.043,121.586 347.709,121.086 347.5,120.5C 351.908,106.698 354.575,92.6976 355.5,78.5C 355.34,80.1992 355.506,81.8659 356,83.5C 356.309,82.2341 356.809,81.0674 357.5,80C 379.837,73.8295 401.837,66.9961 423.5,59.5 Z"/></g>
<g><path style="opacity:1" fill="#f4f2f1" d="M 165.5,58.5 C 168.368,58.085 170.535,59.085 172,61.5C 173.558,133.053 209.725,163.219 280.5,152C 307.705,145.129 325.538,128.296 334,101.5C 337.359,88.375 339.025,75.0416 339,61.5C 342,57.5 345,57.5 348,61.5C 350.829,93.6887 340.996,121.189 318.5,144C 287.062,166.011 253.062,170.678 216.5,158C 188.35,145.84 171.183,124.673 165,94.5C 162.771,83.5931 162.105,72.5931 163,61.5C 163.698,60.3094 164.531,59.3094 165.5,58.5 Z"/></g>
<g><path style="opacity:1" fill="#f15920" d="M 331.5,73.5 C 332.5,74.1667 333.5,74.8333 334.5,75.5C 333.422,86.8124 330.922,97.8124 327,108.5C 319.581,127.586 306.081,140.086 286.5,146C 266.579,151.519 246.579,151.852 226.5,147C 210.168,142.48 197.835,132.98 189.5,118.5C 235.848,103.885 282.348,89.552 329,75.5C 329.278,79.1939 329.278,82.8606 329,86.5C 329.414,86.0426 329.914,85.7093 330.5,85.5C 331.491,81.5546 331.824,77.5546 331.5,73.5 Z"/></g>
<g><path style="opacity:0.024" fill="#2b2b2b" d="M 63.5,471.5 C 66.8953,474.902 70.562,477.902 74.5,480.5C 78.8806,484.024 83.8806,486.524 89.5,488C 98.6773,490.418 108.011,491.752 117.5,492C 209.5,492.667 301.5,492.667 393.5,492C 399.863,491.609 406.197,490.942 412.5,490C 426.471,488.017 438.137,481.85 447.5,471.5C 442.495,479.359 435.495,484.859 426.5,488C 420.617,489.843 414.617,491.177 408.5,492C 357.52,493.143 306.52,493.643 255.5,493.5C 204.48,493.643 153.48,493.143 102.5,492C 87.2259,490.779 74.3926,484.612 64,473.5C 63.5357,472.906 63.369,472.239 63.5,471.5 Z"/></g>
</svg>
