<?xml version="1.0" encoding="UTF-8"?>
<svg width="16px" height="16px" viewBox="0 0 16 16" xmlns="http://www.w3.org/2000/svg">
 <path d="m8 0c0.55469 0 1 0.44531 1 1v6.5s0 0.5 0.5 0.5 0.5-0.5 0.5-0.5v-4.5c0-0.55469 0.44531-1 1-1s1 0.44531 1 1v8.5c0 0.5 0.5 0.5 0.5 0.5l1.793-1.707c0.1875-0.19531 0.44531-0.30078 0.71875-0.30469 1.082 0.085938 1.1445 1.2695 0.69531 1.7188l-3 3c-0.70703 0.79297-1.7578 1.2891-2.707 1.293h-6c-3 0-3-3-3-3v-8c0-0.55469 0.44531-1 1-1s1 0.44531 1 1v3.5s0 0.5 0.5 0.5 0.5-0.5 0.5-0.5v-6.5c0-0.55469 0.44531-1 1-1s1 0.44531 1 1v5.5s0 0.5 0.5 0.5 0.5-0.5 0.5-0.5v-6.5c0-0.55469 0.44531-1 1-1z" fill="#2e3436"/>
</svg>
