<svg xmlns="http://www.w3.org/2000/svg" xmlns:xlink="http://www.w3.org/1999/xlink" width="400" height="400" overflow="hidden"><defs><linearGradient id="a"><stop offset="0" style="stop-color:#4acffd"/><stop offset="1" style="stop-color:#26a4e9"/></linearGradient><linearGradient id="c" x1="1188" x2="994" y1="314" y2="120" gradientTransform="matrix(1.0025 0 0 1.00503 -790.977 -120.603)" gradientUnits="userSpaceOnUse" spreadMethod="reflect"><stop offset="0" style="stop-color:#0e87db"/><stop offset="1" style="stop-color:#2cacec"/></linearGradient><linearGradient id="d" x1="983" x2="789" y1="518" y2="324" gradientTransform="matrix(1.0025 0 0 1.00503 -790.977 -120.603)" gradientUnits="userSpaceOnUse" spreadMethod="reflect"><stop offset="0" style="stop-color:#0078d3"/><stop offset="1" style="stop-color:#22a1e7"/></linearGradient><linearGradient id="e" x1="1188" x2="994" y1="518" y2="324" gradientTransform="matrix(1.0025 0 0 1.00503 -790.977 -120.603)" gradientUnits="userSpaceOnUse" spreadMethod="reflect"><stop offset="0" style="stop-color:#0078d3"/><stop offset="1" style="stop-color:#0d87dc"/></linearGradient><linearGradient xlink:href="#a" id="b" x1="39.900249" x2="194" y1="54.608479" y2="195" gradientTransform="matrix(1.0025 0 0 1.00503 0 -1.005)" gradientUnits="userSpaceOnUse"/></defs><path fill-rule="evenodd" d="M19.783 0h174.703v194.975H0V19.833C0 8.88 8.857 0 19.783 0Z" style="fill:url(#b);fill-opacity:1;stroke-width:1.00376"/><path fill-rule="evenodd" d="M205.514 0H380.22C391.138 0 400 8.88 400 19.833v175.142H205.514Z" style="fill:url(#c);fill-opacity:1;stroke-width:1.00376"/><path fill-rule="evenodd" d="M0 205.025h194.486V400H19.783C8.857 400 0 391.12 0 380.167Z" style="fill:url(#d);fill-opacity:1;stroke-width:1.00376"/><path fill-rule="evenodd" d="M205.514 205.025H400v175.142C400 391.12 391.138 400 380.22 400H205.515Z" style="fill:url(#e);fill-opacity:1;stroke-width:1.00376"/></svg>