<svg width="24px" height="24px" viewBox="0 0 24 24" fill="none" xmlns="http://www.w3.org/2000/svg">
  <g transform="translate(0.1, 1.7) scale(0.86)">
    <path d="M12.55 20.59C11.76 20.59 10.89 20.31 10.02 19.76L7.1 17.93C6.9 17.81 6.67 17.74 6.44 17.74H5C2.58 17.74 1.25 16.41 1.25 13.99V9.98998C1.25 7.56998 2.58 6.23998 5 6.23998H6.43C6.66 6.23998 6.89 6.16998 7.09 6.04998L10.01 4.21998C11.47 3.30998 12.89 3.13998 14.01 3.75998C15.13 4.37998 15.74 5.66998 15.74 7.39998V16.57C15.74 18.29 15.12 19.59 14.01 20.21C13.57 20.47 13.07 20.59 12.55 20.59ZM5 7.74998C3.42 7.74998 2.75 8.41998 2.75 9.99998V14C2.75 15.58 3.42 16.25 5 16.25H6.43C6.95 16.25 7.45 16.39 7.89 16.67L10.81 18.5C11.77 19.1 12.68 19.26 13.29 18.92C13.9 18.58 14.25 17.73 14.25 16.6V7.40998C14.25 6.26998 13.9 5.41998 13.29 5.08998C12.68 4.74998 11.77 4.89998 10.81 5.50998L7.88 7.32998C7.45 7.60998 6.94 7.74998 6.43 7.74998H5Z" fill="#ffffff"/>
    <path d="M 18.46 7.13 A 8.5 8.5 0 0 1 18.46 16.87" stroke="#ffffff" stroke-width="1.7" stroke-linecap="round" fill="none"/>
    <path d="M 21.32 5.12 A 12 12 0 0 1 21.32 18.88" stroke="#ffffff" stroke-width="1.7" stroke-linecap="round" fill="none"/>
    <path d="M 24.19 3.11 A 15.5 15.5 0 0 1 24.19 20.89" stroke="#4a4a4a" stroke-width="1.7" stroke-linecap="round" fill="none"/>
  </g>
</svg>
