<svg width="24px" height="24px" viewBox="0 0 24 24" fill="none" xmlns="http://www.w3.org/2000/svg">
  <g transform="translate(0.1, 1.7) scale(0.86)">
    <path d="M12.55 20.59C11.76 20.59 10.89 20.31 10.02 19.76L7.1 17.93C6.9 17.81 6.67 17.74 6.44 17.74H5C2.58 17.74 1.25 16.41 1.25 13.99V9.98998C1.25 7.56998 2.58 6.23998 5 6.23998H6.43C6.66 6.23998 6.89 6.16998 7.09 6.04998L10.01 4.21998C11.47 3.30998 12.89 3.13998 14.01 3.75998C15.13 4.37998 15.74 5.66998 15.74 7.39998V16.57C15.74 18.29 15.12 19.59 14.01 20.21C13.57 20.47 13.07 20.59 12.55 20.59ZM5 7.74998C3.42 7.74998 2.75 8.41998 2.75 9.99998V14C2.75 15.58 3.42 16.25 5 16.25H6.43C6.95 16.25 7.45 16.39 7.89 16.67L10.81 18.5C11.77 19.1 12.68 19.26 13.29 18.92C13.9 18.58 14.25 17.73 14.25 16.6V7.40998C14.25 6.26998 13.9 5.41998 13.29 5.08998C12.68 4.74998 11.77 4.89998 10.81 5.50998L7.88 7.32998C7.45 7.60998 6.94 7.74998 6.43 7.74998H5Z" fill="#ffffff"/>
    <path d="M17.9998 16.75C17.8398 16.75 17.6898 16.7 17.5498 16.6C17.2198 16.35 17.1498 15.88 17.3998 15.55C18.9698 13.46 18.9698 10.54 17.3998 8.45003C17.1498 8.12003 17.2198 7.65003 17.5498 7.40003C17.8798 7.15003 18.3498 7.22003 18.5998 7.55003C20.5598 10.17 20.5598 13.83 18.5998 16.45C18.4498 16.65 18.2298 16.75 17.9998 16.75Z" fill="#ffffff"/>
    <path d="M19.8299 19.25C19.6699 19.25 19.5199 19.2 19.3799 19.1C19.0499 18.85 18.9799 18.38 19.2299 18.05C21.8999 14.49 21.8999 9.51003 19.2299 5.95003C18.9799 5.62003 19.0499 5.15003 19.3799 4.90003C19.7099 4.65003 20.1799 4.72003 20.4299 5.05003C23.4999 9.14003 23.4999 14.86 20.4299 18.95C20.2899 19.15 20.0599 19.25 19.8299 19.25Z" fill="#ffffff"/>
    <path d="M21.6599 21.75C21.4999 21.75 21.3499 21.7 21.2099 21.6C20.8799 21.35 20.8099 20.88 21.0599 20.55C24.8399 15.52 24.8399 8.48 21.0599 3.45003C20.8099 3.12003 20.8799 2.65003 21.2099 2.40003C21.5399 2.15003 22.0099 2.22003 22.2599 2.55003C26.4399 9.14003 26.4399 14.86 22.2599 21.45C22.1099 21.65 21.8899 21.75 21.6599 21.75Z" fill="#ffffff"/>
  </g>
</svg>
