<?xml version="1.0" encoding="UTF-8"?>
<!-- Created with Inkscape (http://www.inkscape.org/) -->
<svg id="svg7384" width="16" height="16" version="1.1" xmlns="http://www.w3.org/2000/svg" xmlns:cc="http://creativecommons.org/ns#" xmlns:dc="http://purl.org/dc/elements/1.1/" xmlns:rdf="http://www.w3.org/1999/02/22-rdf-syntax-ns#">
 <metadata id="metadata90">
  <rdf:RDF>
   <cc:Work rdf:about="">
    <dc:format>image/svg+xml</dc:format>
    <dc:type rdf:resource="http://purl.org/dc/dcmitype/StillImage"/>
    <dc:title>Gnome Symbolic Icon Theme</dc:title>
   </cc:Work>
  </rdf:RDF>
 </metadata>
 <title id="title9167">Gnome Symbolic Icon Theme</title>
 <g id="layer9" transform="translate(-123 -235)">
  <path id="path26401" d="m131 236c-3.866 0-7 3.134-7 7s3.134 7 7 7 7-3.134 7-7-3.134-7-7-7zm2.9062 2.4688a0.50005 0.50005 0 0 1 0.0312 0 0.50005 0.50005 0 0 1 0.46875 0.84375l-2.4062 3.2188c0.0752 0.15039 0.0937 0.32043 0.0937 0.5 0 0.61804-0.47571 1.125-1.0938 1.125s-1.125-0.50696-1.125-1.125c0-0.13341 0.0509-0.25636 0.0937-0.375l-1.3125-1.3125a0.50005 0.50005 0 1 1 0.6875-0.6875l1.3125 1.3125c0.10883-0.0353 0.22316-0.0625 0.34375-0.0625 0.055 0 0.10335 0.0236 0.15625 0.0312l2.4375-3.25a0.50005 0.50005 0 0 1 0.28125-0.1875 0.50005 0.50005 0 0 1 0.0312-0.0312z" style="color:#000000;fill:#bebebe"/>
 </g>
</svg>
