<?xml version="1.0" encoding="UTF-8"?>
<svg width="16px" height="16px" viewBox="0 0 16 16" xmlns="http://www.w3.org/2000/svg">
 <path d="m58.848 74h-12.18v-28h11.809c6.7344 0 12.191 5.4609 12.191 12.195v3.9844c0 6.5273-5.2891 11.82-11.82 11.82z" fill="none" stroke="#fff" stroke-width="8"/>
 <path d="m2.5 2c-1.3672 0-2.5 1.1328-2.5 2.5v7c0 1.3672 1.1328 2.5 2.5 2.5h5.5v-2h-2.5c-0.27734 0-0.5-0.22266-0.5-0.5v-1c0-0.27734 0.22266-0.5 0.5-0.5h2.5v-1.5c0 0.27734-0.22266 0.5-0.5 0.5h-1c-0.27734 0-0.5-0.22266-0.5-0.5v-1c0-0.27734 0.22266-0.5 0.5-0.5h1c0.27734 0 0.5 0.22266 0.5 0.5v0.5c0-0.94141 0.61719-1.7344 1.4688-2h-0.96875c-0.27734 0-0.5-0.22266-0.5-0.5v-1c0-0.27734 0.22266-0.5 0.5-0.5h1c0.27734 0 0.5 0.22266 0.5 0.5v1c0 0.19141-0.10938 0.35547-0.26953 0.4375 0.12109-0.019531 0.23828-0.03125 0.36328-0.03125h1.1172c-0.12891-0.089844-0.21094-0.23828-0.21094-0.40625v-1c0-0.27734 0.22266-0.5 0.5-0.5h1c0.27734 0 0.5 0.22266 0.5 0.5v1c0 0.16797-0.082031 0.31641-0.21094 0.40625h3.2109v-1.4062c0-1.3672-1.1328-2.5-2.5-2.5zm0 2h1c0.27734 0 0.5 0.22266 0.5 0.5v1c0 0.27734-0.22266 0.5-0.5 0.5h-1c-0.27734 0-0.5-0.22266-0.5-0.5v-1c0-0.24219 0.17188-0.44531 0.39844-0.48828 0.03125-0.007813 0.066406-0.011719 0.10156-0.011719zm3 0h1c0.27734 0 0.5 0.22266 0.5 0.5v1c0 0.27734-0.22266 0.5-0.5 0.5h-1c-0.27734 0-0.5-0.22266-0.5-0.5v-1c0-0.27734 0.22266-0.5 0.5-0.5zm-2 3h1c0.27734 0 0.5 0.22266 0.5 0.5v1c0 0.27734-0.22266 0.5-0.5 0.5h-1c-0.27734 0-0.5-0.22266-0.5-0.5v-1c0-0.27734 0.22266-0.5 0.5-0.5zm-1 3h1c0.27734 0 0.5 0.22266 0.5 0.5v1c0 0.27734-0.22266 0.5-0.5 0.5h-1c-0.27734 0-0.5-0.22266-0.5-0.5v-1c0-0.27734 0.22266-0.5 0.5-0.5z"/>
 <path d="m13.125 16c1.7422 0 2.8242-1.0117 2.875-2.5469h-1.8398c-0.074218 0.65625-0.46875 1.0156-1.0078 1.0156-0.69531 0-1.1445-0.58203-1.1445-1.6875 0-1.0938 0.45313-1.6758 1.1445-1.6758 0.5625 0 0.92969 0.38281 1.0078 1.0156h1.8398c-0.042969-1.5273-1.1562-2.5195-2.8789-2.5195-1.9453 0-3.1211 1.3008-3.1211 3.2031 0 1.8906 1.168 3.1953 3.125 3.1953zm-0.79297-8.9219h-1.6523v0.054687l1.7461 1.8086h1.4141l1.7422-1.8086v-0.054687h-1.6484l-0.80078 0.9375z"/>
</svg>
