<?xml version="1.0" encoding="UTF-8"?>
<svg width="128px" height="128px" viewBox="0 0 128 128" xmlns="http://www.w3.org/2000/svg">
 <linearGradient id="a" x1="9.1973" x2="119.48" y1="112.66" y2="112.66" gradientUnits="userSpaceOnUse">
  <stop stop-color="#5e5c64" offset="0"/>
  <stop stop-color="#77767b" offset=".03785"/>
  <stop stop-color="#3d3846" offset=".073279"/>
  <stop stop-color="#241f31" offset=".92921"/>
  <stop stop-color="#5e5c64" offset=".97104"/>
  <stop stop-color="#5e5c64" offset="1"/>
 </linearGradient>
 <linearGradient id="b" x1="70.51" x2="120.43" y1="113.87" y2="113.87" gradientUnits="userSpaceOnUse">
  <stop stop-color="#5e5c64" offset="0"/>
  <stop stop-color="#77767b" offset=".03785"/>
  <stop stop-color="#3d3846" offset=".073279"/>
  <stop stop-color="#241f31" offset=".79149"/>
  <stop stop-color="#5e5c64" offset=".9166"/>
  <stop stop-color="#5e5c64" offset="1"/>
 </linearGradient>
 <path d="m16.938 34h94.125c4.9375 0 8.9375 4 8.9375 8.9375v64.125c0 4.9375-4 8.9375-8.9375 8.9375h-94.125c-4.9375 0-8.9375-4-8.9375-8.9375v-64.125c0-4.9375 4-8.9375 8.9375-8.9375z" fill="url(#a)"/>
 <path d="m16.344 28h95.312c4.6094 0 8.3438 3.7344 8.3438 8.3438v67.312c0 4.6094-3.7344 8.3438-8.3438 8.3438h-95.312c-4.6094 0-8.3438-3.7344-8.3438-8.3438v-67.312c0-4.6094 3.7344-8.3438 8.3438-8.3438z" fill="#5e5c64"/>
 <path d="m107 96h6c1.6602 0 3 1.3398 3 3v6c0 1.6602-1.3398 3-3 3h-6c-1.6602 0-3-1.3398-3-3v-6c0-1.6602 1.3398-3 3-3zm-42 0h34c1.6602 0 3 1.3398 3 3v6c0 1.6602-1.3398 3-3 3h-34c-1.6641 0-3-1.3398-3-3v-6c0-1.6602 1.3359-3 3-3zm-14 0h6c1.6602 0 3 1.3398 3 3v6c0 1.6602-1.3398 3-3 3h-6c-1.6602 0-3-1.3398-3-3v-6c0-1.6602 1.3398-3 3-3zm-14 0h6c1.6602 0 3 1.3398 3 3v6c0 1.6602-1.3398 3-3 3h-6c-1.6602 0-3-1.3398-3-3v-6c0-1.6602 1.3398-3 3-3zm-22 0h14c1.6641 0 3 1.3398 3 3v6c0 1.6602-1.3359 3-3 3h-14c-1.6641 0-3-1.3398-3-3v-6c0-1.6602 1.3359-3 3-3zm97.961-22.922h0.039062c1.6602 0 3 1.3398 3 3v15.844c0 1.6602-1.3398 3-3 3h-0.039062c-1.6641 0-3-1.3398-3-3v-15.844c0-1.6602 1.3359-3 3-3zm-5.9609-5.0781h6c1.6602 0 3 1.3398 3 3v6c0 1.6602-1.3398 3-3 3h-6c-1.6602 0-3-1.3398-3-3v-6c0-1.6602 1.3398-3 3-3zm-8 14h6c1.6602 0 3 1.3398 3 3v6c0 1.6602-1.3398 3-3 3h-6c-1.6602 0-3-1.3398-3-3v-6c0-1.6602 1.3398-3 3-3zm-14 0h6c1.6602 0 3 1.3398 3 3v6c0 1.6602-1.3398 3-3 3h-6c-1.6602 0-3-1.3398-3-3v-6c0-1.6602 1.3398-3 3-3zm-70 0h6c1.6602 0 3 1.3398 3 3v6c0 1.6602-1.3398 3-3 3h-6c-1.6602 0-3-1.3398-3-3v-6c0-1.6602 1.3398-3 3-3zm56 0h6c1.6602 0 3 1.3398 3 3v6c0 1.6602-1.3398 3-3 3h-6c-1.6602 0-3-1.3398-3-3v-6c0-1.6602 1.3398-3 3-3zm-14 0h6c1.6602 0 3 1.3398 3 3v6c0 1.6602-1.3398 3-3 3h-6c-1.6602 0-3-1.3398-3-3v-6c0-1.6602 1.3398-3 3-3zm-14 0h6c1.6602 0 3 1.3398 3 3v6c0 1.6602-1.3398 3-3 3h-6c-1.6602 0-3-1.3398-3-3v-6c0-1.6602 1.3398-3 3-3zm-14 0h6c1.6602 0 3 1.3398 3 3v6c0 1.6602-1.3398 3-3 3h-6c-1.6602 0-3-1.3398-3-3v-6c0-1.6602 1.3398-3 3-3zm64-14h6c1.6602 0 3 1.3398 3 3v6c0 1.6602-1.3398 3-3 3h-6c-1.6602 0-3-1.3398-3-3v-6c0-1.6602 1.3398-3 3-3zm-14 0h6c1.6602 0 3 1.3398 3 3v6c0 1.6602-1.3398 3-3 3h-6c-1.6602 0-3-1.3398-3-3v-6c0-1.6602 1.3398-3 3-3zm-14 0h6c1.6602 0 3 1.3398 3 3v6c0 1.6602-1.3398 3-3 3h-6c-1.6602 0-3-1.3398-3-3v-6c0-1.6602 1.3398-3 3-3zm-14 0h6c1.6602 0 3 1.3398 3 3v6c0 1.6602-1.3398 3-3 3h-6c-1.6602 0-3-1.3398-3-3v-6c0-1.6602 1.3398-3 3-3zm-14 0h6c1.6602 0 3 1.3398 3 3v6c0 1.6602-1.3398 3-3 3h-6c-1.6602 0-3-1.3398-3-3v-6c0-1.6602 1.3398-3 3-3zm-22 0h14c1.6641 0 3 1.3398 3 3v6c0 1.6602-1.3359 3-3 3h-14c-1.6641 0-3-1.3398-3-3v-6c0-1.6602 1.3359-3 3-3zm84-14.059h14c1.6641 0 3 1.3398 3 3v6c0 1.6602-1.3359 3-3 3h-14c-1.6602 0-3-1.3398-3-3v-6c0-1.6602 1.3398-3 3-3zm-14 0h6c1.6602 0 3 1.3398 3 3v6c0 1.6602-1.3398 3-3 3h-6c-1.6602 0-3-1.3398-3-3v-6c0-1.6602 1.3398-3 3-3zm-70 0h6c1.6602 0 3 1.3398 3 3v6c0 1.6602-1.3398 3-3 3h-6c-1.6602 0-3-1.3398-3-3v-6c0-1.6602 1.3398-3 3-3zm56 0h6c1.6602 0 3 1.3398 3 3v6c0 1.6602-1.3398 3-3 3h-6c-1.6602 0-3-1.3398-3-3v-6c0-1.6602 1.3398-3 3-3zm-14 0h6c1.6602 0 3 1.3398 3 3v6c0 1.6602-1.3398 3-3 3h-6c-1.6602 0-3-1.3398-3-3v-6c0-1.6602 1.3398-3 3-3zm-14 0h6c1.6602 0 3 1.3398 3 3v6c0 1.6602-1.3398 3-3 3h-6c-1.6602 0-3-1.3398-3-3v-6c0-1.6602 1.3398-3 3-3zm-14 0h6c1.6602 0 3 1.3398 3 3v6c0 1.6602-1.3398 3-3 3h-6c-1.6602 0-3-1.3398-3-3v-6c0-1.6602 1.3398-3 3-3zm78-9.9414h6c1.6602 0 3 1.3398 3 3s-1.3398 3-3 3h-6c-1.6602 0-3-1.3398-3-3s1.3398-3 3-3zm-14 0h6c1.6602 0 3 1.3398 3 3s-1.3398 3-3 3h-6c-1.6602 0-3-1.3398-3-3s1.3398-3 3-3zm-22 0h6c1.6602 0 3 1.3398 3 3s-1.3398 3-3 3h-6c-1.6602 0-3-1.3398-3-3s1.3398-3 3-3zm-14 0h6c1.6602 0 3 1.3398 3 3s-1.3398 3-3 3h-6c-1.6602 0-3-1.3398-3-3s1.3398-3 3-3zm-14 0h6c1.6602 0 3 1.3398 3 3s-1.3398 3-3 3h-6c-1.6602 0-3-1.3398-3-3s1.3398-3 3-3zm-14 0h6c1.6602 0 3 1.3398 3 3s-1.3398 3-3 3h-6c-1.6602 0-3-1.3398-3-3s1.3398-3 3-3zm-13.879 0h5.7578c1.7305 0 3.1211 1.3398 3.1211 3s-1.3906 3-3.1211 3h-5.7578c-1.7305 0-3.1211-1.3398-3.1211-3s1.3906-3 3.1211-3z" fill="#241f31"/>
 <path d="m107 96h6c1.6602 0 3 1.3398 3 3v5c0 1.6602-1.3398 3-3 3h-6c-1.6602 0-3-1.3398-3-3v-5c0-1.6602 1.3398-3 3-3zm-42 0h34c1.6602 0 3 1.3398 3 3v5c0 1.6602-1.3398 3-3 3h-34c-1.6641 0-3-1.3398-3-3v-5c0-1.6602 1.3359-3 3-3zm-14 0h6c1.6602 0 3 1.3398 3 3v5c0 1.6602-1.3398 3-3 3h-6c-1.6602 0-3-1.3398-3-3v-5c0-1.6602 1.3398-3 3-3zm-14 0h6c1.6602 0 3 1.3398 3 3v5c0 1.6602-1.3398 3-3 3h-6c-1.6602 0-3-1.3398-3-3v-5c0-1.6602 1.3398-3 3-3zm-22 0h14c1.6602 0 3 1.3398 3 3v5c0 1.6602-1.3398 3-3 3h-14c-1.6641 0-3-1.3398-3-3v-5c0-1.6602 1.3359-3 3-3zm97.961-23.844h0.039062c1.6602 0 3 1.3398 3 3v15.844c0 1.6602-1.3398 3-3 3h-0.039062c-1.6641 0-3-1.3398-3-3v-15.844c0-1.6602 1.3359-3 3-3zm-5.9609-4.1562h6c1.6602 0 3 1.3398 3 3v5c0 1.6602-1.3398 3-3 3h-6c-1.6602 0-3-1.3398-3-3v-5c0-1.6602 1.3398-3 3-3zm-8 14h6c1.6602 0 3 1.3398 3 3v5c0 1.6602-1.3398 3-3 3h-6c-1.6602 0-3-1.3398-3-3v-5c0-1.6602 1.3398-3 3-3zm-14 0h6c1.6602 0 3 1.3398 3 3v5c0 1.6602-1.3398 3-3 3h-6c-1.6602 0-3-1.3398-3-3v-5c0-1.6602 1.3398-3 3-3zm-70 0h6c1.6602 0 3 1.3398 3 3v5c0 1.6602-1.3398 3-3 3h-6c-1.6602 0-3-1.3398-3-3v-5c0-1.6602 1.3398-3 3-3zm56 0h6c1.6602 0 3 1.3398 3 3v5c0 1.6602-1.3398 3-3 3h-6c-1.6602 0-3-1.3398-3-3v-5c0-1.6602 1.3398-3 3-3zm-14 0h6c1.6602 0 3 1.3398 3 3v5c0 1.6602-1.3398 3-3 3h-6c-1.6602 0-3-1.3398-3-3v-5c0-1.6602 1.3398-3 3-3zm-14 0h6c1.6602 0 3 1.3398 3 3v5c0 1.6602-1.3398 3-3 3h-6c-1.6602 0-3-1.3398-3-3v-5c0-1.6602 1.3398-3 3-3zm-14 0h6c1.6602 0 3 1.3398 3 3v5c0 1.6602-1.3398 3-3 3h-6c-1.6602 0-3-1.3398-3-3v-5c0-1.6602 1.3398-3 3-3zm64-14h6c1.6602 0 3 1.3398 3 3v5c0 1.6602-1.3398 3-3 3h-6c-1.6602 0-3-1.3398-3-3v-5c0-1.6602 1.3398-3 3-3zm-14 0h6c1.6602 0 3 1.3398 3 3v5c0 1.6602-1.3398 3-3 3h-6c-1.6602 0-3-1.3398-3-3v-5c0-1.6602 1.3398-3 3-3zm-14 0h6c1.6602 0 3 1.3398 3 3v5c0 1.6602-1.3398 3-3 3h-6c-1.6602 0-3-1.3398-3-3v-5c0-1.6602 1.3398-3 3-3zm-14 0h6c1.6602 0 3 1.3398 3 3v5c0 1.6602-1.3398 3-3 3h-6c-1.6602 0-3-1.3398-3-3v-5c0-1.6602 1.3398-3 3-3zm-14 0h6c1.6602 0 3 1.3398 3 3v5c0 1.6602-1.3398 3-3 3h-6c-1.6602 0-3-1.3398-3-3v-5c0-1.6602 1.3398-3 3-3zm-22 0h14c1.6602 0 3 1.3398 3 3v5c0 1.6602-1.3398 3-3 3h-14c-1.6641 0-3-1.3398-3-3v-5c0-1.6602 1.3359-3 3-3zm84-14.059h14c1.6602 0 3 1.3398 3 3v5c0 1.6602-1.3398 3-3 3h-14c-1.6602 0-3-1.3398-3-3v-5c0-1.6602 1.3398-3 3-3zm-14 0h6c1.6602 0 3 1.3398 3 3v5c0 1.6602-1.3398 3-3 3h-6c-1.6602 0-3-1.3398-3-3v-5c0-1.6602 1.3398-3 3-3zm-70 0h6c1.6602 0 3 1.3398 3 3v5c0 1.6602-1.3398 3-3 3h-6c-1.6602 0-3-1.3398-3-3v-5c0-1.6602 1.3398-3 3-3zm56 0h6c1.6602 0 3 1.3398 3 3v5c0 1.6602-1.3398 3-3 3h-6c-1.6602 0-3-1.3398-3-3v-5c0-1.6602 1.3398-3 3-3zm-14 0h6c1.6602 0 3 1.3398 3 3v5c0 1.6602-1.3398 3-3 3h-6c-1.6602 0-3-1.3398-3-3v-5c0-1.6602 1.3398-3 3-3zm-14 0h6c1.6602 0 3 1.3398 3 3v5c0 1.6602-1.3398 3-3 3h-6c-1.6602 0-3-1.3398-3-3v-5c0-1.6602 1.3398-3 3-3zm-14 0h6c1.6602 0 3 1.3398 3 3v5c0 1.6602-1.3398 3-3 3h-6c-1.6602 0-3-1.3398-3-3v-5c0-1.6602 1.3398-3 3-3zm78-9.9414h6c1.6602 0 3 1.1133 3 2.5s-1.3398 2.5-3 2.5h-6c-1.6602 0-3-1.1133-3-2.5s1.3398-2.5 3-2.5zm-14 0h6c1.6602 0 3 1.1133 3 2.5s-1.3398 2.5-3 2.5h-6c-1.6602 0-3-1.1133-3-2.5s1.3398-2.5 3-2.5zm-22 0h6c1.6602 0 3 1.1133 3 2.5s-1.3398 2.5-3 2.5h-6c-1.6602 0-3-1.1133-3-2.5s1.3398-2.5 3-2.5zm-14 0h6c1.6602 0 3 1.1133 3 2.5s-1.3398 2.5-3 2.5h-6c-1.6602 0-3-1.1133-3-2.5s1.3398-2.5 3-2.5zm-14 0h6c1.6602 0 3 1.1133 3 2.5s-1.3398 2.5-3 2.5h-6c-1.6602 0-3-1.1133-3-2.5s1.3398-2.5 3-2.5zm-14 0h6c1.6602 0 3 1.1133 3 2.5s-1.3398 2.5-3 2.5h-6c-1.6602 0-3-1.1133-3-2.5s1.3398-2.5 3-2.5zm-14 0h6c1.6602 0 3 1.1133 3 2.5s-1.3398 2.5-3 2.5h-6c-1.6602 0-3-1.1133-3-2.5s1.3398-2.5 3-2.5z" fill="#3d3846"/>
 <path d="m101.96 31.918c1.125 0 2.0391 0.91406 2.0391 2.043 0 1.125-0.91406 2.0391-2.0391 2.0391-1.1289 0-2.043-0.91406-2.043-2.0391 0-1.1289 0.91406-2.043 2.043-2.043z" fill="#f9f06b"/>
 <path d="m110 32c1.1055 0 2 0.89453 2 2s-0.89453 2-2 2-2-0.89453-2-2 0.89453-2 2-2z" fill="#f9f06b"/>
 <path d="m77.551 68.582h35.098c4.0586 0 7.3516 2.8984 7.3516 6.4727v30.473c0 3.5742-3.293 6.4727-7.3516 6.4727h-35.098c-4.0625 0-7.3516-2.8984-7.3516-6.4727v-30.473c0-3.5742 3.2891-6.4727 7.3516-6.4727z" fill="url(#b)" fill-rule="evenodd"/>
 <g stroke="#deddda">
  <path d="m96.965 77.023v-30.004c0-4.418-3.5781-8.0039-8-8.0078l-19.977-0.011719c-2.1211 0-4.1523 0.83984-5.6523 2.3398s-2.3398 3.5352-2.3359 5.6523l0.011719 12" fill="none" stroke-dasharray="2 2" stroke-width="2"/>
  <path d="m78.191 65.262h33.797c3.9102 0 7.0781 2.7852 7.0781 6.2188v29.285c0 3.4336-3.168 6.2188-7.0781 6.2188h-33.797c-3.9102 0-7.082-2.7852-7.082-6.2188v-29.285c0-3.4336 3.1719-6.2188 7.082-6.2188zm0 0" fill="#3d3846" fill-rule="evenodd" stroke-linecap="round" stroke-linejoin="round" stroke-width="2.0323"/>
  <path d="m56.797 53.348h6.4062c1.3203 0 2.3867 1.0664 2.3867 2.3867v5.3789c0 1.3203-1.0664 2.3867-2.3867 2.3867h-6.4062c-1.3203 0-2.3867-1.0664-2.3867-2.3867v-5.3789c0-1.3203 1.0664-2.3867 2.3867-2.3867zm0 0" fill="#3d3846" fill-rule="evenodd" stroke-linecap="round" stroke-linejoin="round"/>
 </g>
 <path d="m95.004 98c5.0078 0 8.1172-2.918 8.2695-7.332h-5.3008c-0.21094 1.8945-1.3477 2.9297-2.9023 2.9297-1.9922 0-3.293-1.6875-3.293-4.8594 0-3.1484 1.3125-4.832 3.293-4.832 1.625 0 2.6797 1.1016 2.9023 2.9258h5.3008c-0.12891-4.3906-3.3281-7.25-8.2812-7.25-5.6055 0-8.9922 3.7422-8.9922 9.2148 0 5.4492 3.3633 9.2031 9.0039 9.2031zm-2.2891-25.68h-4.7539v0.15234l5.0234 5.2031h4.0703l5.0117-5.2031v-0.15234h-4.7422l-2.3086 2.6953z" fill="#fff"/>
</svg>
